<svg xmlns="http://www.w3.org/2000/svg" width="87.964" height="130.514" viewBox="0 0 87.964 130.514">
  <g id="barbecue" transform="translate(-14.984 -0.051)">
    <g id="Grupo_1851" data-name="Grupo 1851" transform="translate(14.984 0.051)">
      <circle id="Elipse_72" data-name="Elipse 72" cx="5.068" cy="5.068" r="5.068" transform="translate(60.521 109.958)" fill="#fd4d44"/>
      <path id="Trazado_2642" data-name="Trazado 2642" d="M13.956,20.813a2.183,2.183,0,1,0,3.9,1.955c1.982-3.954,4.172-6.69,8.4-7.2a11.212,11.212,0,0,0,9.317-6.614,2.185,2.185,0,0,0-3.927-1.917,6.941,6.941,0,0,1-5.914,4.2C19.188,12.026,16.108,16.521,13.956,20.813Z" transform="translate(39.656 25.615)" fill="#fd4d44"/>
      <path id="Trazado_2643" data-name="Trazado 2643" d="M27.831,14l-1.868.437c-1.141.262-2.288.53-3.419.825A11.738,11.738,0,0,0,15.4,20.035a2.186,2.186,0,0,0,3.659,2.392,7.4,7.4,0,0,1,4.6-2.944c1.087-.284,2.19-.541,3.293-.792l1.906-.448a7.359,7.359,0,0,0,5.521-4.5c.59-1.5,1.147-3.015,1.66-4.538a2.187,2.187,0,0,0-4.151-1.382c-.481,1.453-1.016,2.894-1.573,4.325A3.074,3.074,0,0,1,27.831,14Z" transform="translate(45.546 27.949)" fill="#fd4d44"/>
      <path id="Trazado_2644" data-name="Trazado 2644" d="M5.593,48.3c.546,2.709,2.381,3.675,3.91,3.675a5.132,5.132,0,0,0,2.567-.765L67.693,19.036a4.409,4.409,0,0,0,2.479-3.4,4.356,4.356,0,0,0-1.78-3.757C60.67,5.236,52.1,1.866,42.9,1.866A43.836,43.836,0,0,0,31.545,3.461,8.131,8.131,0,0,0,20.639,1.276c-1.2.77-2.387,1.562-3.566,2.354l-1.24.825a7.709,7.709,0,0,0-3.266,5.134,7.838,7.838,0,0,0,1.081,5.685A38.687,38.687,0,0,0,5.593,48.3ZM18.258,8.092l1.251-.836c1.163-.775,2.321-1.556,3.5-2.3a3.716,3.716,0,0,1,2-.6,3.435,3.435,0,0,1,2.447,1.125L17.078,12.319a3.268,3.268,0,0,1-.218-1.884A3.361,3.361,0,0,1,18.258,8.092Zm-1.049,9.732.655-.786L31.927,7.759a4.247,4.247,0,0,0,.726-.06c12.031-3.331,22.817-1.043,32.871,7.547a.042.042,0,0,0-.027.011L9.864,47.385C7.669,36.365,10.071,26.7,17.209,17.824Z" transform="translate(-0.465 -0.051)" fill="#fd4d44"/>
      <path id="Trazado_2645" data-name="Trazado 2645" d="M6.131,20.2h4.937A37.593,37.593,0,0,0,27.8,45.033L11.615,77.8a6.373,6.373,0,0,0,5.767,9.087,6.334,6.334,0,0,0,5.691-3.506l3.752-6.592,28.322-.033A15.388,15.388,0,1,0,70.1,56.037l-4.456-9.508A37.625,37.625,0,0,0,84.9,20.2h4.828a2.184,2.184,0,1,0,0-4.369h-4.3c.049-.8.126-1.606.126-2.425,0-.322-.022-.644-.076-1.453a2.178,2.178,0,0,0-2.179-2.108H12.674c-1.18,0-2.168,1.425-2.212,2.6-.022.317-.044.639-.044.961,0,.819.071,1.617.126,2.425H6.131a2.184,2.184,0,0,0,0,4.369ZM19.195,81.372a2.072,2.072,0,0,1-2.671.961,2.008,2.008,0,0,1-.978-2.632L31.619,47.168a36.013,36.013,0,0,0,3.725,1.567L28.309,63.65l-.005.005L23.16,74.4ZM53.426,50.527,58.3,60.92a15.357,15.357,0,0,0-2.212,3.1l-23.139.022,6.63-14.057a37.368,37.368,0,0,0,8.4.983A38.14,38.14,0,0,0,53.426,50.527Zm-24.483,21.9,1.922-4.014,23.56-.022a15.254,15.254,0,0,0-.306,3.015c0,.339.076.661.1.994ZM80.584,71.4A11.043,11.043,0,1,1,69.542,60.357,11.055,11.055,0,0,1,80.584,71.4ZM65.522,56.584a15.051,15.051,0,0,0-3.7,1.551l-4-8.525a37.923,37.923,0,0,0,3.834-1.262ZM81.158,14.215a33.189,33.189,0,0,1-66.359,0Z" transform="translate(-3.947 43.627)" fill="#fd4d44"/>
    </g>
  </g>
</svg>
