<svg xmlns="http://www.w3.org/2000/svg" xmlns:xlink="http://www.w3.org/1999/xlink" width="94.852" height="64.248" viewBox="0 0 94.852 64.248">
  <defs>
    <linearGradient id="linear-gradient" x1="-5.249" y1="7.242" x2="1.106" y2="-0.474" gradientUnits="objectBoundingBox">
      <stop offset="0" stop-color="#33a1c5"/>
      <stop offset="0.37" stop-color="#ffbd4e"/>
      <stop offset="0.66" stop-color="#ff4e46"/>
      <stop offset="1" stop-color="#4d30ac"/>
    </linearGradient>
    <linearGradient id="linear-gradient-2" x1="-7.257" y1="9.68" x2="0.189" y2="0.64" xlink:href="#linear-gradient"/>
  </defs>
  <g id="Grupo_1917" data-name="Grupo 1917" transform="translate(-186.147 -2292.96)">
    <path id="Trazado_2772" data-name="Trazado 2772" d="M277.378,96.526c-7.548,4.176-12.824,11.563-16.2,17.87-3.436-6.3-8.666-13.761-15.734-18.139A5.142,5.142,0,0,0,240.036,105c10.491,6.489,16.338,23.653,16.4,23.821a5.132,5.132,0,0,0,4.872,3.505h.092a5.143,5.143,0,0,0,4.839-3.677c.049-.171,5.169-17.077,16.12-23.13a5.141,5.141,0,0,0-4.979-9Z" transform="translate(-51.454 2224.879)" fill="url(#linear-gradient)"/>
    <path id="Trazado_2773" data-name="Trazado 2773" d="M298.77,87.377a4.389,4.389,0,0,0-5.962-1.714c-6.443,3.564-10.946,9.866-13.825,15.25-2.935-5.381-7.4-11.744-13.431-15.48a4.388,4.388,0,0,0-4.616,7.464c8.953,5.537,13.942,20.185,13.994,20.331a4.386,4.386,0,0,0,4.16,2.994h.077a4.392,4.392,0,0,0,4.13-3.142c.044-.146,4.411-14.572,13.758-19.74A4.383,4.383,0,0,0,298.77,87.377Z" transform="translate(-18.321 2208.184)" fill="url(#linear-gradient-2)"/>
  </g>
</svg>
