<svg xmlns="http://www.w3.org/2000/svg" width="150.309" height="115.342" viewBox="0 0 150.309 115.342">
  <g id="building" transform="translate(-2.5 -13.5)">
    <g id="Grupo_1854" data-name="Grupo 1854" transform="translate(2.5 13.5)">
      <path id="Trazado_2661" data-name="Trazado 2661" d="M149.328,121.881h-7.436V22.2a8.779,8.779,0,0,0-8.7-8.7H58.035a8.779,8.779,0,0,0-8.7,8.7v8.7H22.119a8.779,8.779,0,0,0-8.7,8.7v82.274H5.981a3.481,3.481,0,1,0,0,6.962H149.328a3.481,3.481,0,0,0,0-6.962ZM56.295,22.36a1.756,1.756,0,0,1,1.74-1.74H133.19a1.756,1.756,0,0,1,1.74,1.74v99.679H104.077V102.261a2.836,2.836,0,0,0-2.848-2.848H87.306a2.836,2.836,0,0,0-2.848,2.848v19.619H56.295Zm-35.916,17.4a1.756,1.756,0,0,1,1.74-1.74H49.175v83.857h-28.8Z" transform="translate(-2.5 -13.5)" fill="#fff"/>
      <path id="Trazado_2662" data-name="Trazado 2662" d="M43.348,34.517h5.221a2.836,2.836,0,0,0,2.848-2.848V26.448A2.836,2.836,0,0,0,48.569,23.6H43.348A2.836,2.836,0,0,0,40.5,26.448v5.221A2.836,2.836,0,0,0,43.348,34.517Z" transform="translate(19.624 -7.62)" fill="#fff"/>
      <path id="Trazado_2663" data-name="Trazado 2663" d="M54.348,34.517h5.221a2.836,2.836,0,0,0,2.848-2.848V26.448A2.836,2.836,0,0,0,59.569,23.6H54.348A2.836,2.836,0,0,0,51.5,26.448v5.221A2.836,2.836,0,0,0,54.348,34.517Z" transform="translate(26.028 -7.62)" fill="#fff"/>
      <path id="Trazado_2664" data-name="Trazado 2664" d="M65.448,34.517h5.221a2.836,2.836,0,0,0,2.848-2.848V26.448A2.836,2.836,0,0,0,70.669,23.6H65.448A2.836,2.836,0,0,0,62.6,26.448v5.221A2.836,2.836,0,0,0,65.448,34.517Z" transform="translate(32.49 -7.62)" fill="#fff"/>
      <path id="Trazado_2665" data-name="Trazado 2665" d="M76.448,34.517h5.221a2.836,2.836,0,0,0,2.848-2.848V26.448A2.836,2.836,0,0,0,81.669,23.6H76.448A2.836,2.836,0,0,0,73.6,26.448v5.221A2.836,2.836,0,0,0,76.448,34.517Z" transform="translate(38.894 -7.62)" fill="#fff"/>
      <path id="Trazado_2666" data-name="Trazado 2666" d="M43.348,45.617h5.221a2.836,2.836,0,0,0,2.848-2.848V37.548A2.836,2.836,0,0,0,48.569,34.7H43.348A2.836,2.836,0,0,0,40.5,37.548v5.221A2.836,2.836,0,0,0,43.348,45.617Z" transform="translate(19.624 -1.157)" fill="#fff"/>
      <path id="Trazado_2667" data-name="Trazado 2667" d="M54.348,45.617h5.221a2.836,2.836,0,0,0,2.848-2.848V37.548A2.836,2.836,0,0,0,59.569,34.7H54.348A2.836,2.836,0,0,0,51.5,37.548v5.221A2.836,2.836,0,0,0,54.348,45.617Z" transform="translate(26.028 -1.157)" fill="#fff"/>
      <path id="Trazado_2668" data-name="Trazado 2668" d="M65.448,45.617h5.221a2.836,2.836,0,0,0,2.848-2.848V37.548A2.836,2.836,0,0,0,70.669,34.7H65.448A2.836,2.836,0,0,0,62.6,37.548v5.221A2.836,2.836,0,0,0,65.448,45.617Z" transform="translate(32.49 -1.157)" fill="#fff"/>
      <path id="Trazado_2669" data-name="Trazado 2669" d="M76.448,45.617h5.221a2.836,2.836,0,0,0,2.848-2.848V37.548A2.836,2.836,0,0,0,81.669,34.7H76.448A2.836,2.836,0,0,0,73.6,37.548v5.221A2.836,2.836,0,0,0,76.448,45.617Z" transform="translate(38.894 -1.157)" fill="#fff"/>
      <path id="Trazado_2670" data-name="Trazado 2670" d="M43.348,56.617h5.221a2.836,2.836,0,0,0,2.848-2.848V48.548A2.836,2.836,0,0,0,48.569,45.7H43.348A2.836,2.836,0,0,0,40.5,48.548v5.221A2.836,2.836,0,0,0,43.348,56.617Z" transform="translate(19.624 5.247)" fill="#fff"/>
      <path id="Trazado_2671" data-name="Trazado 2671" d="M54.348,56.617h5.221a2.836,2.836,0,0,0,2.848-2.848V48.548A2.836,2.836,0,0,0,59.569,45.7H54.348A2.836,2.836,0,0,0,51.5,48.548v5.221A2.836,2.836,0,0,0,54.348,56.617Z" transform="translate(26.028 5.247)" fill="#fff"/>
      <path id="Trazado_2672" data-name="Trazado 2672" d="M65.448,56.617h5.221a2.836,2.836,0,0,0,2.848-2.848V48.548A2.836,2.836,0,0,0,70.669,45.7H65.448A2.836,2.836,0,0,0,62.6,48.548v5.221A2.836,2.836,0,0,0,65.448,56.617Z" transform="translate(32.49 5.247)" fill="#fff"/>
      <path id="Trazado_2673" data-name="Trazado 2673" d="M76.448,56.617h5.221a2.836,2.836,0,0,0,2.848-2.848V48.548A2.836,2.836,0,0,0,81.669,45.7H76.448A2.836,2.836,0,0,0,73.6,48.548v5.221A2.836,2.836,0,0,0,76.448,56.617Z" transform="translate(38.894 5.247)" fill="#fff"/>
      <path id="Trazado_2674" data-name="Trazado 2674" d="M43.348,67.717h5.221a2.836,2.836,0,0,0,2.848-2.848V59.648A2.836,2.836,0,0,0,48.569,56.8H43.348A2.836,2.836,0,0,0,40.5,59.648v5.221A2.836,2.836,0,0,0,43.348,67.717Z" transform="translate(19.624 11.709)" fill="#fff"/>
      <path id="Trazado_2675" data-name="Trazado 2675" d="M54.348,67.717h5.221a2.836,2.836,0,0,0,2.848-2.848V59.648A2.836,2.836,0,0,0,59.569,56.8H54.348A2.836,2.836,0,0,0,51.5,59.648v5.221A2.836,2.836,0,0,0,54.348,67.717Z" transform="translate(26.028 11.709)" fill="#fff"/>
      <path id="Trazado_2676" data-name="Trazado 2676" d="M65.448,67.717h5.221a2.836,2.836,0,0,0,2.848-2.848V59.648A2.836,2.836,0,0,0,70.669,56.8H65.448A2.836,2.836,0,0,0,62.6,59.648v5.221A2.836,2.836,0,0,0,65.448,67.717Z" transform="translate(32.49 11.709)" fill="#fff"/>
      <path id="Trazado_2677" data-name="Trazado 2677" d="M76.448,67.717h5.221a2.836,2.836,0,0,0,2.848-2.848V59.648A2.836,2.836,0,0,0,81.669,56.8H76.448A2.836,2.836,0,0,0,73.6,59.648v5.221A2.836,2.836,0,0,0,76.448,67.717Z" transform="translate(38.894 11.709)" fill="#fff"/>
      <path id="Trazado_2678" data-name="Trazado 2678" d="M43.348,78.717h5.221a2.836,2.836,0,0,0,2.848-2.848V70.648A2.836,2.836,0,0,0,48.569,67.8H43.348A2.836,2.836,0,0,0,40.5,70.648v5.221A2.836,2.836,0,0,0,43.348,78.717Z" transform="translate(19.624 18.113)" fill="#fff"/>
      <path id="Trazado_2679" data-name="Trazado 2679" d="M76.448,78.717h5.221a2.836,2.836,0,0,0,2.848-2.848V70.648A2.836,2.836,0,0,0,81.669,67.8H76.448A2.836,2.836,0,0,0,73.6,70.648v5.221A2.836,2.836,0,0,0,76.448,78.717Z" transform="translate(38.894 18.113)" fill="#fff"/>
      <path id="Trazado_2680" data-name="Trazado 2680" d="M27.569,34.7H22.348A2.836,2.836,0,0,0,19.5,37.548v5.221a2.836,2.836,0,0,0,2.848,2.848h5.221a2.836,2.836,0,0,0,2.848-2.848V37.548A2.836,2.836,0,0,0,27.569,34.7Z" transform="translate(7.397 -1.157)" fill="#fff"/>
      <path id="Trazado_2681" data-name="Trazado 2681" d="M27.569,45.7H22.348A2.836,2.836,0,0,0,19.5,48.548v5.221a2.836,2.836,0,0,0,2.848,2.848h5.221a2.836,2.836,0,0,0,2.848-2.848V48.548A2.836,2.836,0,0,0,27.569,45.7Z" transform="translate(7.397 5.247)" fill="#fff"/>
      <path id="Trazado_2682" data-name="Trazado 2682" d="M27.569,56.8H22.348A2.836,2.836,0,0,0,19.5,59.648v5.221a2.836,2.836,0,0,0,2.848,2.848h5.221a2.836,2.836,0,0,0,2.848-2.848V59.648A2.836,2.836,0,0,0,27.569,56.8Z" transform="translate(7.397 11.709)" fill="#fff"/>
      <path id="Trazado_2683" data-name="Trazado 2683" d="M27.569,67.8H22.348A2.836,2.836,0,0,0,19.5,70.648v5.221a2.836,2.836,0,0,0,2.848,2.848h5.221a2.836,2.836,0,0,0,2.848-2.848V70.648A2.836,2.836,0,0,0,27.569,67.8Z" transform="translate(7.397 18.113)" fill="#fff"/>
    </g>
  </g>
</svg>
