<svg xmlns="http://www.w3.org/2000/svg" width="97.663" height="107.298" viewBox="0 0 97.663 107.298">
  <g id="bus" transform="translate(-9.306 -1.487)">
    <g id="Layer_7" data-name="Layer 7" transform="translate(9.306 1.487)">
      <path id="Trazado_2646" data-name="Trazado 2646" d="M81.874,97.012H10.383A2.382,2.382,0,0,1,8,94.629V3.87a2.382,2.382,0,0,1,2.383-2.383H81.874A2.382,2.382,0,0,1,84.258,3.87V94.629a2.383,2.383,0,0,1-2.384,2.383ZM12.766,92.246H79.491V6.253H12.766Z" transform="translate(2.703 -1.487)" fill="#fd4d44"/>
      <path id="Trazado_2647" data-name="Trazado 2647" d="M21.578,56.112a9.457,9.457,0,0,1-9.446-9.447V41.955a2.382,2.382,0,0,1,2.383-2.383H28.641a2.382,2.382,0,0,1,2.383,2.383v4.709a9.457,9.457,0,0,1-9.446,9.447ZM16.9,44.338v2.326a4.68,4.68,0,1,0,9.36,0V44.338Z" transform="translate(8.417 51.186)" fill="#fd4d44"/>
      <path id="Trazado_2648" data-name="Trazado 2648" d="M37.793,56.112a9.457,9.457,0,0,1-9.446-9.447V41.955a2.382,2.382,0,0,1,2.383-2.383H44.856a2.382,2.382,0,0,1,2.383,2.383v4.709a9.457,9.457,0,0,1-9.446,9.447Zm-4.68-11.773v2.326a4.68,4.68,0,1,0,9.36,0V44.338Z" transform="translate(30.843 51.186)" fill="#fd4d44"/>
      <path id="Trazado_2649" data-name="Trazado 2649" d="M81.874,49.276H10.383A2.382,2.382,0,0,1,8,46.893V11.146a2.382,2.382,0,0,1,2.383-2.383H81.874a2.382,2.382,0,0,1,2.383,2.383V46.893a2.382,2.382,0,0,1-2.383,2.383ZM12.766,44.51H79.491V13.529H12.766Z" transform="translate(2.703 8.576)" fill="#fd4d44"/>
      <path id="Trazado_2650" data-name="Trazado 2650" d="M5.892,26.372a2.382,2.382,0,0,1-2.383-2.383V11.146A2.382,2.382,0,0,1,5.892,8.763h10.7a2.383,2.383,0,1,1,0,4.766H8.275v10.46a2.382,2.382,0,0,1-2.383,2.383Z" transform="translate(-3.509 8.576)" fill="#fd4d44"/>
      <path id="Trazado_2651" data-name="Trazado 2651" d="M51.086,26.372A2.382,2.382,0,0,1,48.7,23.989V13.529h-8.32a2.383,2.383,0,1,1,0-4.766h10.7a2.382,2.382,0,0,1,2.383,2.383V23.989a2.382,2.382,0,0,1-2.383,2.383Z" transform="translate(44.194 8.576)" fill="#fd4d44"/>
      <path id="Trazado_2652" data-name="Trazado 2652" d="M28.641,38.738H14.515a2.383,2.383,0,0,1,0-4.766H28.641a2.383,2.383,0,0,1,0,4.766Z" transform="translate(8.417 43.44)" fill="#fd4d44"/>
      <path id="Trazado_2653" data-name="Trazado 2653" d="M44.856,38.738H30.73a2.383,2.383,0,0,1,0-4.766H44.856a2.383,2.383,0,0,1,0,4.766Z" transform="translate(30.843 43.44)" fill="#fd4d44"/>
    </g>
  </g>
</svg>
