<svg xmlns="http://www.w3.org/2000/svg" xmlns:xlink="http://www.w3.org/1999/xlink" width="503" height="465" viewBox="0 0 503 465">
  <defs>
    <linearGradient id="linear-gradient" x1="-0.125" y1="0.88" x2="1.407" y2="0.15" gradientUnits="objectBoundingBox">
      <stop offset="0" stop-color="#33a1c5"/>
      <stop offset="0.37" stop-color="#ffbd4e"/>
      <stop offset="0.66" stop-color="#ff4e46"/>
      <stop offset="1" stop-color="#4d30ac"/>
    </linearGradient>
    <linearGradient id="linear-gradient-2" x1="-5.311" y1="13.779" x2="2.944" y2="-5.079" xlink:href="#linear-gradient"/>
    <linearGradient id="linear-gradient-3" x1="-0.162" y1="0.791" x2="3.774" y2="-0.271" xlink:href="#linear-gradient"/>
    <linearGradient id="linear-gradient-4" x1="-2.556" y1="1.143" x2="1.827" y2="0.055" xlink:href="#linear-gradient"/>
    <linearGradient id="linear-gradient-5" x1="-5.249" y1="7.242" x2="1.106" y2="-0.474" xlink:href="#linear-gradient"/>
    <linearGradient id="linear-gradient-6" x1="-7.257" y1="9.68" x2="0.189" y2="0.64" xlink:href="#linear-gradient"/>
  </defs>
  <g id="Grupo_1968" data-name="Grupo 1968" transform="translate(18233 -11341)">
    <g id="Rect치ngulo_3162" data-name="Rect치ngulo 3162" transform="translate(-18233 11341)" fill="#fff" stroke="#707070" stroke-width="1">
      <rect width="503" height="465" stroke="none"/>
      <rect x="0.5" y="0.5" width="502" height="464" fill="none"/>
    </g>
    <g id="Grupo_1967" data-name="Grupo 1967" transform="translate(-18297.543 11290.262)">
      <g id="Grupo_1693" data-name="Grupo 1693" transform="translate(173.37 68.658)">
        <path id="Trazado_2316" data-name="Trazado 2316" d="M308.549,377.381H288.959c.01-.13.036-.253.036-.384V73.667a4.641,4.641,0,1,0-9.252,0V377c0,.132.027.255.036.384h-9.756c.01-.13.038-.253.038-.384V104.662a4.641,4.641,0,1,0-9.252,0V377c0,.132.025.255.036.384h-9.758c.008-.13.036-.253.036-.384V138.238a4.641,4.641,0,1,0-9.252,0V377c0,.132.025.255.035.384H217.225c.008-.13.036-.253.036-.384V73.667a4.641,4.641,0,1,0-9.252,0V377c0,.132.025.255.035.384h-9.756c.008-.13.035-.253.035-.384V104.662a4.641,4.641,0,1,0-9.252,0V377c0,.132.025.255.035.384h-9.756c.008-.13.036-.253.036-.384V138.238a4.641,4.641,0,1,0-9.252,0V377c0,.132.027.255.036.384H157.285a4.626,4.626,0,0,0,0,9.252H308.549a4.626,4.626,0,1,0,0-9.252Z" transform="translate(-98.647 -68.658)" fill="url(#linear-gradient)"/>
        <path id="Trazado_2317" data-name="Trazado 2317" d="M217.313,100.6V90.9a129.519,129.519,0,0,0-25.947-2.613c-1.283,0-2.565,0-3.848.094v9.5c1.283-.1,2.565-.1,3.848-.1A119.949,119.949,0,0,1,217.313,100.6Z" transform="translate(-60.686 -47.279)" fill="url(#linear-gradient-2)"/>
        <path id="Trazado_2318" data-name="Trazado 2318" d="M182.925,304.358a121.032,121.032,0,0,1,6.367-195.545V97.5a130.531,130.531,0,0,0-6.367,218.639Z" transform="translate(-126.804 -37.246)" fill="url(#linear-gradient-3)"/>
        <path id="Trazado_2319" data-name="Trazado 2319" d="M226.667,100.073V112a120.966,120.966,0,0,1-1.615,189.558v11.784a130.453,130.453,0,0,0,1.615-213.27Z" transform="translate(-19.812 -34.447)" fill="url(#linear-gradient-4)"/>
        <path id="Trazado_2320" data-name="Trazado 2320" d="M270.076,96.336c-6.163,3.409-10.47,9.44-13.223,14.59-2.806-5.147-7.075-11.235-12.845-14.809a4.2,4.2,0,0,0-4.418,7.14c8.565,5.3,13.338,19.311,13.388,19.449a4.19,4.19,0,0,0,3.977,2.862h.075a4.2,4.2,0,0,0,3.95-3c.04-.14,4.22-13.942,13.161-18.885a4.2,4.2,0,0,0-4.065-7.345Z" transform="translate(-6.146 -39.438)" fill="url(#linear-gradient-5)"/>
        <path id="Trazado_2321" data-name="Trazado 2321" d="M291.444,86.9a3.583,3.583,0,0,0-4.867-1.4c-5.26,2.91-8.937,8.055-11.287,12.45-2.4-4.393-6.039-9.589-10.965-12.638a3.582,3.582,0,0,0-3.769,6.094c7.309,4.521,11.383,16.48,11.425,16.6a3.581,3.581,0,0,0,3.4,2.444h.063a3.585,3.585,0,0,0,3.372-2.565c.036-.119,3.6-11.9,11.232-16.117A3.579,3.579,0,0,0,291.444,86.9Z" transform="translate(17.004 -51.105)" fill="url(#linear-gradient-6)"/>
      </g>
      <g id="Grupo_1694" data-name="Grupo 1694" transform="translate(84.847 406.01)">
        <rect id="Rect치ngulo_3041" data-name="Rect치ngulo 3041" width="476.847" height="1.48" transform="translate(0 0)" fill="gray"/>
      </g>
      <g id="Grupo_1695" data-name="Grupo 1695" transform="translate(84.044 425.364)">
        <path id="Trazado_2322" data-name="Trazado 2322" d="M93,244.9a13.235,13.235,0,0,1,5.544,1.136,13.563,13.563,0,0,1,4.27,3.021,13.428,13.428,0,0,1,2.753,14.23,13.81,13.81,0,0,1-2.709,4.314,13.345,13.345,0,0,1-4.257,3.065,13.168,13.168,0,0,1-5.6,1.159H86.547v6.334a.731.731,0,0,1-.827.827h-.848a.731.731,0,0,1-.827-.827V245.748c0-.476.207-.735.62-.783l.138-.069Zm-6.449,24.4h6.472a10.794,10.794,0,0,0,4.567-.94,10.986,10.986,0,0,0-.056-20.061,11.226,11.226,0,0,0-4.694-.942H86.547Z" transform="translate(-84.044 -233.441)" fill="gray"/>
        <path id="Trazado_2323" data-name="Trazado 2323" d="M123.479,278.7q-.457-1.1-.917-2.225t-.917-2.25H101.24l-1.815,4.385a1,1,0,0,1-.894.71,2.874,2.874,0,0,1-1.239-.219c-.305-.144-.458-.315-.458-.516a.863.863,0,0,1,.09-.389l13.405-32.043c.061-.136.138-.3.23-.48a5.455,5.455,0,0,1,.286-.516,2.1,2.1,0,0,1,.309-.4.454.454,0,0,1,.3-.161.739.739,0,0,1,.689.505l13.817,33.142a.542.542,0,0,1,.069.207,1.562,1.562,0,0,1,.023.232c0,.167-.175.315-.529.447a3.426,3.426,0,0,1-1.193.194A.875.875,0,0,1,123.479,278.7Zm-21.208-7h18.316l-8.354-20.153c-.123-.3-.249-.616-.38-.93s-.263-.623-.4-.93a.041.041,0,0,0-.046.046Z" transform="translate(-70.116 -233.775)" fill="gray"/>
        <path id="Trazado_2324" data-name="Trazado 2324" d="M140.371,257.773a13.074,13.074,0,0,1-.391,3.169,12.629,12.629,0,0,1-1.149,2.96,12.924,12.924,0,0,1-1.859,2.6,11.633,11.633,0,0,1-2.523,2.079l4.408,9.317a.832.832,0,0,1,.044.184,1.583,1.583,0,0,1,.025.23.712.712,0,0,1-.173.46.607.607,0,0,1-.493.207H136.9a.72.72,0,0,1-.664-.483l-4.132-8.745a13.082,13.082,0,0,1-4.865.848h-9.365v7.506a.782.782,0,0,1-.9.873h-.848a.771.771,0,0,1-.873-.873V245.838a.942.942,0,0,1,.24-.654.84.84,0,0,1,.564-.288h11.178a13.34,13.34,0,0,1,5.461,1.08,12.8,12.8,0,0,1,4.145,2.881,12.615,12.615,0,0,1,2.615,4.12A13.03,13.03,0,0,1,140.371,257.773Zm-13.129,10.215a10.918,10.918,0,0,0,4.452-.861,9.874,9.874,0,0,0,5.348-5.567,10.38,10.38,0,0,0,.712-3.787,10.492,10.492,0,0,0-.712-3.8,10.206,10.206,0,0,0-2.053-3.294,10.025,10.025,0,0,0-3.294-2.317,10.817,10.817,0,0,0-4.452-.873h-9.365v20.5Z" transform="translate(-50.051 -233.441)" fill="gray"/>
        <path id="Trazado_2325" data-name="Trazado 2325" d="M158.222,278.7q-.461-1.1-.917-2.225t-.919-2.25H135.981l-1.813,4.385a1,1,0,0,1-.894.71,2.874,2.874,0,0,1-1.239-.219c-.307-.144-.46-.315-.46-.516a.838.838,0,0,1,.092-.389l13.4-32.043c.063-.136.138-.3.23-.48s.186-.357.286-.516a2.2,2.2,0,0,1,.311-.4.45.45,0,0,1,.3-.161.737.737,0,0,1,.687.505L160.7,278.237a.582.582,0,0,1,.069.207,1.523,1.523,0,0,1,.021.232c0,.167-.175.315-.526.447a3.447,3.447,0,0,1-1.195.194A.873.873,0,0,1,158.222,278.7Zm-21.208-7h18.316l-8.354-20.153c-.123-.3-.251-.616-.38-.93s-.265-.623-.4-.93a.041.041,0,0,0-.046.046Z" transform="translate(-32.283 -233.775)" fill="gray"/>
        <path id="Trazado_2326" data-name="Trazado 2326" d="M153.978,240.107a1.224,1.224,0,0,1,1.36-.664l.944.2q.809.169.28,1.009l-3.5,5.448a1.59,1.59,0,0,1-.681.662,1.223,1.223,0,0,1-.712.048l-.921-.194q-.83-.175-.267-1.061Zm-3.944,11.588a.817.817,0,0,1,.217-.608.86.86,0,0,1,.631-.219h.827a.866.866,0,0,1,.618.219.792.792,0,0,1,.23.608v32.432a.74.74,0,0,1-.848.827h-.827a.74.74,0,0,1-.848-.827Z" transform="translate(-12.181 -239.412)" fill="gray"/>
        <path id="Trazado_2327" data-name="Trazado 2327" d="M156.386,272.893a4.2,4.2,0,0,1,.483-.5.956.956,0,0,1,.643-.263,1.506,1.506,0,0,1,.424.115.954.954,0,0,1,.447.3,17.276,17.276,0,0,0,1.767,2.087,9.367,9.367,0,0,0,2.01,1.54,9.254,9.254,0,0,0,2.386.94,12.15,12.15,0,0,0,2.927.322,12.975,12.975,0,0,0,3.33-.414,8.044,8.044,0,0,0,2.73-1.274,6.19,6.19,0,0,0,1.859-2.2,6.882,6.882,0,0,0,.687-3.179,5.048,5.048,0,0,0-.572-2.467,6.38,6.38,0,0,0-1.563-1.859,10.816,10.816,0,0,0-2.306-1.435q-1.319-.617-2.789-1.216-2.294-.918-4.278-1.767a16.2,16.2,0,0,1-3.455-1.964,8.358,8.358,0,0,1-2.308-2.628,7.646,7.646,0,0,1-.838-3.741,9.09,9.09,0,0,1,.712-3.672,7.878,7.878,0,0,1,1.964-2.753,8.558,8.558,0,0,1,2.971-1.721,11.257,11.257,0,0,1,3.718-.6,11.91,11.91,0,0,1,2.607.286,11.62,11.62,0,0,1,2.432.84,10.706,10.706,0,0,1,2.158,1.354,11.025,11.025,0,0,1,1.8,1.836,1.459,1.459,0,0,1,.161.263.711.711,0,0,1,.046.286c0,.048-.046.115-.138.207s-.2.2-.322.309a4.771,4.771,0,0,1-.4.345c-.144.117-.263.211-.355.288a.536.536,0,0,1-.46.125.845.845,0,0,1-.368-.217,11.344,11.344,0,0,0-3.1-2.434,8.622,8.622,0,0,0-4.063-.9,8.121,8.121,0,0,0-2.8.462,6.521,6.521,0,0,0-2.168,1.272,5.608,5.608,0,0,0-1.4,1.941,6.08,6.08,0,0,0-.493,2.478,4.848,4.848,0,0,0,.723,2.709,6.827,6.827,0,0,0,2.033,1.951,18.616,18.616,0,0,0,3.108,1.583l3.938,1.606a33.327,33.327,0,0,1,3.43,1.642,12.03,12.03,0,0,1,2.64,1.939,7.785,7.785,0,0,1,1.688,2.457,7.972,7.972,0,0,1,.6,3.19,9.457,9.457,0,0,1-.871,4.165,8.832,8.832,0,0,1-2.375,3.029,10.2,10.2,0,0,1-3.537,1.849,14.725,14.725,0,0,1-4.326.62,13.952,13.952,0,0,1-6.3-1.412,12.722,12.722,0,0,1-4.924-4.625,1.554,1.554,0,0,1-.171-.3.843.843,0,0,1-.056-.322A.543.543,0,0,1,156.386,272.893Z" transform="translate(-5.612 -233.823)" fill="gray"/>
        <path id="Trazado_2328" data-name="Trazado 2328" d="M170.679,262.188a17.449,17.449,0,0,1,8.642-15.091,17.741,17.741,0,0,1,4.176-1.767,17.437,17.437,0,0,1,9.3,0,17.793,17.793,0,0,1,4.178,1.767,17.568,17.568,0,0,1,6.265,6.267A17.779,17.779,0,0,1,205,257.54a17.4,17.4,0,0,1,0,9.286,17.815,17.815,0,0,1-1.767,4.165,17.46,17.46,0,0,1-32.557-8.8Zm2.546,0a14.5,14.5,0,0,0,1.172,5.8,14.935,14.935,0,0,0,3.2,4.74,15.19,15.19,0,0,0,4.752,3.188,14.447,14.447,0,0,0,5.795,1.172,14.878,14.878,0,0,0,3.959-.526,14.6,14.6,0,0,0,3.57-1.506,14.985,14.985,0,0,0,3.019-2.34,15.083,15.083,0,0,0,3.856-6.564,14.84,14.84,0,0,0-.643-9.756,15.133,15.133,0,0,0-7.965-7.965,14.776,14.776,0,0,0-9.754-.641,15.23,15.23,0,0,0-3.558,1.515,14.917,14.917,0,0,0-3.031,2.342,14.726,14.726,0,0,0-2.329,3.019,15.206,15.206,0,0,0-1.5,3.568A14.541,14.541,0,0,0,173.225,262.188Z" transform="translate(10.302 -233.655)" fill="gray"/>
        <path id="Trazado_2329" data-name="Trazado 2329" d="M228.623,248.463a.8.8,0,0,1,.366.641.889.889,0,0,1-.23.506,1.782,1.782,0,0,0-.159.217,3.538,3.538,0,0,1-.288.37,4.062,4.062,0,0,1-.355.355.549.549,0,0,1-.345.161h-.092a.691.691,0,0,1-.184-.036,1.071,1.071,0,0,1-.276-.148,16.574,16.574,0,0,0-4.234-2.375,13.448,13.448,0,0,0-4.83-.861,15.06,15.06,0,0,0-4.053.537,15.374,15.374,0,0,0-3.626,1.527,14.828,14.828,0,0,0-3.052,2.365,15.27,15.27,0,0,0-2.342,3.042,14.978,14.978,0,0,0-1.5,3.558,14.544,14.544,0,0,0-.526,3.915,14.4,14.4,0,0,0,.539,3.959,14.675,14.675,0,0,0,1.527,3.545,15.054,15.054,0,0,0,2.352,3.006,14.867,14.867,0,0,0,3.017,2.319,15.153,15.153,0,0,0,3.524,1.494,14.3,14.3,0,0,0,3.89.526,15.286,15.286,0,0,0,9.043-3.1l.577-.322a.862.862,0,0,1,.366-.115.64.64,0,0,1,.378.184,2.947,2.947,0,0,1,.426.449,2.991,2.991,0,0,1,.345.56,1.332,1.332,0,0,1,.138.529.569.569,0,0,1-.117.357,2.355,2.355,0,0,1-.3.309,18.1,18.1,0,0,1-4.97,2.743,17.788,17.788,0,0,1-12.647-.391,17.473,17.473,0,0,1-5.544-3.741,17.7,17.7,0,0,1-3.729-5.555,17.632,17.632,0,0,1-.746-11.441,17.508,17.508,0,0,1,4.487-7.713,17.323,17.323,0,0,1,3.535-2.743,17.778,17.778,0,0,1,4.176-1.767,17.1,17.1,0,0,1,4.648-.631,16.428,16.428,0,0,1,5.784,1.009A19.912,19.912,0,0,1,228.623,248.463Z" transform="translate(42.607 -233.655)" fill="gray"/>
        <path id="Trazado_2330" data-name="Trazado 2330" d="M241.637,244.9a.763.763,0,0,1,.871.852v.8a.782.782,0,0,1-.871.85H221.186v17.121h16.526a.937.937,0,0,1,.631.207.832.832,0,0,1,.242.666v.825a.839.839,0,0,1-.23.62.871.871,0,0,1-.643.228H221.186v9.413H242a.76.76,0,0,1,.871.848v.825a.74.74,0,0,1-.848.827H219.372a.664.664,0,0,1-.562-.219.911.911,0,0,1-.173-.585V245.723c0-.351.09-.577.265-.677a1.156,1.156,0,0,1,.585-.15Z" transform="translate(62.528 -233.441)" fill="gray"/>
        <path id="Trazado_2331" data-name="Trazado 2331" d="M237.4,250.17v28.392a.74.74,0,0,1-.848.827h-.8a.74.74,0,0,1-.848-.827V245.3a1.417,1.417,0,0,1,.1-.516c.069-.175.232-.263.493-.263a.8.8,0,0,1,.574.253q6.151,7.5,12.246,14.93t12.244,14.932V246.129a.742.742,0,0,1,.85-.827h.825a.731.731,0,0,1,.827.827v33.443a1.379,1.379,0,0,1-.138.47.5.5,0,0,1-.505.242.741.741,0,0,1-.618-.3Z" transform="translate(80.237 -233.847)" fill="gray"/>
        <path id="Trazado_2332" data-name="Trazado 2332" d="M275.546,244.9a1.024,1.024,0,0,1,.641.2.745.745,0,0,1,.253.631v.8a.816.816,0,0,1-.894.873h-9.687v30.754a.742.742,0,0,1-.85.827h-.825a.731.731,0,0,1-.827-.827V247.4H253.35a.762.762,0,0,1-.85-.873v-.8a.742.742,0,0,1,.85-.827Z" transform="translate(99.405 -233.441)" fill="gray"/>
        <path id="Trazado_2333" data-name="Trazado 2333" d="M293.28,257.773a13.074,13.074,0,0,1-.391,3.169,12.628,12.628,0,0,1-1.149,2.96,12.922,12.922,0,0,1-1.859,2.6,11.634,11.634,0,0,1-2.523,2.079l4.408,9.317a.83.83,0,0,1,.044.184,1.581,1.581,0,0,1,.025.23.7.7,0,0,1-.173.46.607.607,0,0,1-.493.207h-1.356a.72.72,0,0,1-.664-.483l-4.132-8.745a13.082,13.082,0,0,1-4.865.848h-9.365v7.506a.782.782,0,0,1-.9.873h-.848a.771.771,0,0,1-.873-.873V245.838a.943.943,0,0,1,.24-.654.84.84,0,0,1,.564-.288H280.15a13.351,13.351,0,0,1,5.463,1.08,12.81,12.81,0,0,1,4.143,2.881,12.616,12.616,0,0,1,2.615,4.12A13.03,13.03,0,0,1,293.28,257.773ZM280.15,267.988a10.918,10.918,0,0,0,4.452-.861,9.952,9.952,0,0,0,3.294-2.3,10.061,10.061,0,0,0,2.053-3.271,10.381,10.381,0,0,0,.712-3.787,10.493,10.493,0,0,0-.712-3.8,10.205,10.205,0,0,0-2.053-3.294,10,10,0,0,0-3.294-2.317,10.817,10.817,0,0,0-4.452-.873h-9.365v20.5Z" transform="translate(116.467 -233.441)" fill="gray"/>
        <path id="Trazado_2334" data-name="Trazado 2334" d="M311.131,278.7q-.461-1.1-.917-2.225t-.919-2.25H288.89l-1.813,4.385a1,1,0,0,1-.894.71,2.874,2.874,0,0,1-1.239-.219c-.307-.144-.46-.315-.46-.516a.837.837,0,0,1,.092-.389l13.4-32.043c.063-.136.138-.3.23-.48s.188-.357.286-.516a2.193,2.193,0,0,1,.311-.4.45.45,0,0,1,.3-.161.737.737,0,0,1,.687.505l13.819,33.142a.582.582,0,0,1,.069.207,1.52,1.52,0,0,1,.021.232c0,.167-.176.315-.526.447a3.446,3.446,0,0,1-1.195.194A.873.873,0,0,1,311.131,278.7Zm-21.207-7H308.24l-8.354-20.153c-.123-.3-.251-.616-.38-.93s-.263-.623-.4-.93a.041.041,0,0,0-.046.046Z" transform="translate(134.235 -233.775)" fill="gray"/>
        <path id="Trazado_2335" data-name="Trazado 2335" d="M322.477,276.482a.891.891,0,0,1,.62.207.823.823,0,0,1,.23.641v.825a.8.8,0,0,1-.23.608.85.85,0,0,1-.62.219H303.749a.891.891,0,0,1-.62-.207.788.788,0,0,1-.23-.62V245.723a.792.792,0,0,1,.23-.608.9.9,0,0,1,.641-.219h.827a.889.889,0,0,1,.618.207.788.788,0,0,1,.23.62v30.758Z" transform="translate(154.289 -233.441)" fill="gray"/>
      </g>
    </g>
  </g>
</svg>
