<svg xmlns="http://www.w3.org/2000/svg" width="136.381" height="68.124" viewBox="0 0 136.381 68.124">
  <g id="gym" transform="translate(-10.022 -15.523)">
    <g id="Grupo_1853" data-name="Grupo 1853" transform="translate(10.022 15.524)">
      <g id="Grupo_1852" data-name="Grupo 1852">
        <path id="Trazado_2654" data-name="Trazado 2654" d="M131.44,41.053h-5.262V32.379A8.494,8.494,0,0,0,114.8,24.371v-.382c0-11.292-17.064-11.281-17.064,0V41.053H45.719V23.988c0-11.292-17.064-11.281-17.064,0v.382a8.495,8.495,0,0,0-11.376,8.008v8.674h-5.29c-11.292,0-11.281,17.064,0,17.064h5.29v8.7a8.5,8.5,0,0,0,11.376,8.008v.354c0,11.286,17.064,11.289,17.064,0V58.117H97.737V75.182c0,11.286,17.064,11.289,17.064,0v-.355a8.495,8.495,0,0,0,11.376-8.008v-8.7h5.262C142.732,58.117,142.721,41.053,131.44,41.053ZM17.278,52.429h-5.29c-3.763,0-3.762-5.688,0-5.688h5.29Zm11.376,14.39c0,3.763-5.688,3.762-5.688,0V32.379c0-3.762,5.688-3.762,5.688,0Zm11.376,8.363c0,3.763-5.688,3.762-5.688,0V23.988c0-3.762,5.688-3.762,5.688,0ZM97.737,52.429H45.719V46.741H97.737Zm11.376,22.753c0,3.763-5.688,3.762-5.688,0V23.988c0-3.762,5.688-3.762,5.688,0ZM120.49,55.273V66.819c0,3.763-5.688,3.762-5.688,0V32.379c0-3.763,5.688-3.762,5.688,0Zm5.688-2.844V46.741c2.233.351,8.106-1.349,8.106,2.844S128.408,52.078,126.178,52.429Z" transform="translate(-3.524 -15.524)" fill="#fd4d44"/>
      </g>
    </g>
  </g>
</svg>
