<svg xmlns="http://www.w3.org/2000/svg" width="66.205" height="75.601" viewBox="0 0 66.205 75.601">
  <g id="lavadero" transform="translate(-45.952 -16.278)">
    <path id="Trazado_2777" data-name="Trazado 2777" d="M110.9,47.123H96.547V43.242a1.322,1.322,0,0,0-1.271-1.32H85.932a1.266,1.266,0,0,0-1.2,1.32v3.881h-4.57V24.63a5.831,5.831,0,1,1,11.662,0V30a1.261,1.261,0,0,0,2.522,0V24.63a8.352,8.352,0,0,0-16.7,0V47.123H73.381V43.242a1.266,1.266,0,0,0-1.2-1.32H62.833a1.322,1.322,0,0,0-1.271,1.32v3.881H47.213a1.261,1.261,0,0,0,0,2.522h2.056V60.572a9.289,9.289,0,0,0,9.258,9.244H68.5V76.84a1.32,1.32,0,0,0,1.261,1.328h4.413V90.541a1.359,1.359,0,0,0,1.3,1.338h7.18a1.359,1.359,0,0,0,1.3-1.338V78.169h4.413a1.32,1.32,0,0,0,1.261-1.328V69.816h9.968a9.289,9.289,0,0,0,9.259-9.244V49.644H110.9a1.261,1.261,0,1,0,0-2.522ZM87.249,44.444h6.777v2.679H87.249Zm-23.166,0h6.777v2.679H64.083Zm6.934,25.373h1.1v5.831h-1.1Zm11.189,5.831V69.816h1.261v5.831Zm-2.521,0H78.266V69.816h1.418Zm-3.94,0h-1.1V69.816h1.1Zm5.673,13.711H76.69V78.169h4.728Zm5.673-13.711h-1.1V69.816h1.1Zm19.226-15.075a6.764,6.764,0,0,1-6.737,6.722H58.528a6.764,6.764,0,0,1-6.737-6.722V49.644h54.528Z" transform="translate(0)" fill="#552bb1"/>
  </g>
</svg>
