<svg xmlns="http://www.w3.org/2000/svg" width="61.259" height="71.469" viewBox="0 0 61.259 71.469">
  <g id="lavadero-2" transform="translate(-4 -2)">
    <g id="Grupo_1952" data-name="Grupo 1952" transform="translate(4 2)">
      <path id="Trazado_2778" data-name="Trazado 2778" d="M58.878,2h-48.5A6.388,6.388,0,0,0,4,8.381V67.088a6.388,6.388,0,0,0,6.381,6.381h48.5a6.387,6.387,0,0,0,6.381-6.381V8.381A6.387,6.387,0,0,0,58.878,2ZM6.552,8.381a3.833,3.833,0,0,1,3.829-3.829h48.5a3.833,3.833,0,0,1,3.829,3.829v8.934H6.552ZM62.706,67.088a3.833,3.833,0,0,1-3.829,3.829h-48.5a3.833,3.833,0,0,1-3.829-3.829V19.867H62.706Z" transform="translate(-4 -2)" fill="#552bb1"/>
      <path id="Trazado_2779" data-name="Trazado 2779" d="M24.539,41.577A14.039,14.039,0,1,0,10.5,27.539,14.057,14.057,0,0,0,24.539,41.577Zm0-2.552A11.458,11.458,0,0,1,13.188,28.871a12.338,12.338,0,0,1,.927.983c.929,1.075,2.167,2.5,4.076,2.5,2.361,0,3.535-1.894,4.362-3.826.628-1.47.985-2.129,1.779-2.254.809-.135,1.34.391,2.389,1.6,1.031,1.187,2.438,2.795,4.709,2.453,2.277-.357,3.122-2.333,3.737-3.775a11.416,11.416,0,0,1,.63-1.292A11.473,11.473,0,0,1,24.539,39.025Zm0-22.972a11.468,11.468,0,0,1,10.289,6.478,7.207,7.207,0,0,0-2.006,3.027c-.63,1.473-.99,2.131-1.784,2.256s-1.337-.393-2.389-1.6c-1.029-1.184-2.448-2.8-4.709-2.453s-3.117,2.333-3.732,3.775c-.628,1.47-.985,2.129-1.779,2.254s-1.332-.391-2.381-1.6a7.21,7.21,0,0,0-2.828-2.267A11.464,11.464,0,0,1,24.539,16.052Z" transform="translate(6.091 15.853)" fill="#552bb1"/>
      <path id="Trazado_2780" data-name="Trazado 2780" d="M10.829,40.353a3.853,3.853,0,0,0,.791-.084,20.42,20.42,0,1,0,0-17.7A3.822,3.822,0,0,0,7,26.315v10.21A3.833,3.833,0,0,0,10.829,40.353Zm19.143-26.8A17.867,17.867,0,1,1,13.79,38.921a3.8,3.8,0,0,0,.868-2.4V26.315a3.8,3.8,0,0,0-.868-2.4A17.812,17.812,0,0,1,29.972,13.552ZM9.552,26.315a1.276,1.276,0,1,1,2.552,0v10.21a1.276,1.276,0,1,1-2.552,0Z" transform="translate(0.657 11.972)" fill="#552bb1"/>
      <path id="Trazado_2781" data-name="Trazado 2781" d="M25.143,4H9.829a3.829,3.829,0,1,0,0,7.657H25.143a3.829,3.829,0,0,0,0-7.657Zm0,5.1H9.829a1.276,1.276,0,1,1,0-2.552H25.143a1.276,1.276,0,0,1,0,2.552Z" transform="translate(-0.895 1.105)" fill="#552bb1"/>
      <path id="Trazado_2782" data-name="Trazado 2782" d="M22.829,4a3.829,3.829,0,1,0,3.829,3.829A3.833,3.833,0,0,0,22.829,4Zm0,5.1A1.276,1.276,0,1,1,24.1,7.829,1.28,1.28,0,0,1,22.829,9.1Z" transform="translate(19.287 1.105)" fill="#552bb1"/>
      <path id="Trazado_2783" data-name="Trazado 2783" d="M26.829,4a3.829,3.829,0,1,0,3.829,3.829A3.833,3.833,0,0,0,26.829,4Zm0,5.1A1.276,1.276,0,1,1,28.1,7.829,1.28,1.28,0,0,1,26.829,9.1Z" transform="translate(25.497 1.105)" fill="#552bb1"/>
      <ellipse id="Elipse_84" data-name="Elipse 84" cx="1.5" cy="1" rx="1.5" ry="1" transform="translate(33 5.469)" fill="#552bb1"/>
      <ellipse id="Elipse_85" data-name="Elipse 85" cx="1.5" cy="1" rx="1.5" ry="1" transform="translate(33 10.469)" fill="#552bb1"/>
    </g>
  </g>
</svg>
