<svg xmlns="http://www.w3.org/2000/svg" width="90" height="90" viewBox="0 0 90 90">
  <g id="phone" transform="translate(-5 -5)">
    <path id="Trazado_2658" data-name="Trazado 2658" d="M48.059,20.579a2.5,2.5,0,0,0,2.109,2.838A31.522,31.522,0,0,1,76.583,49.832a2.5,2.5,0,0,0,2.47,2.136,2.471,2.471,0,0,0,.367-.027A2.5,2.5,0,0,0,81.53,49.1,36.555,36.555,0,0,0,50.9,18.47a2.5,2.5,0,0,0-2.838,2.109Z" fill="#552bb1"/>
    <path id="Trazado_2659" data-name="Trazado 2659" d="M52.261,10A42.908,42.908,0,0,1,90,47.739a2.5,2.5,0,0,0,2.483,2.228,2.615,2.615,0,0,0,.275-.015A2.5,2.5,0,0,0,94.975,47.2,47.943,47.943,0,0,0,52.8,5.025,2.5,2.5,0,0,0,52.261,10Z" fill="#552bb1"/>
    <path id="Trazado_2660" data-name="Trazado 2660" d="M91.824,70.321,77.407,59.858c-4.307-3.125-7.824.864-9.925,3.248-2.941,3.338-3.562,3.382-4.589,2.653A123.493,123.493,0,0,1,47.419,52.582,123.485,123.485,0,0,1,34.24,37.107c-.728-1.026-.685-1.647,2.653-4.589,2.384-2.1,6.374-5.617,3.248-9.925L29.679,8.176C26.7,4.067,22.758,4.751,19.66,5.806A31.859,31.859,0,0,0,8.129,12.931C3.675,17.384,3.985,25.746,9,36.475c4.657,9.962,12.878,21.1,23.149,31.375S53.563,86.343,63.525,91c5.7,2.664,10.73,4,14.861,4,3.647,0,6.594-1.041,8.682-3.129a31.866,31.866,0,0,0,7.126-11.532C95.249,77.241,95.934,73.3,91.824,70.321Zm-2.363,8.407a26.951,26.951,0,0,1-5.928,9.608c-2.774,2.772-9.461,2.075-17.89-1.865-9.448-4.417-20.088-12.285-29.958-22.155S17.947,43.805,13.53,34.357c-3.941-8.43-4.638-15.117-1.865-17.89a26.945,26.945,0,0,1,9.607-5.927,8.026,8.026,0,0,1,2.474-.528,2.046,2.046,0,0,1,1.885,1.1L36.095,25.53c.32.442.043.989-2.507,3.237-2.623,2.311-7.013,6.18-3.425,11.235a128.588,128.588,0,0,0,13.72,16.116A128.584,128.584,0,0,0,60,69.837c5.055,3.589,8.924-.8,11.235-3.425,2.249-2.551,2.793-2.827,3.237-2.507L88.887,74.368C89.773,75.011,90.537,75.566,89.461,78.727Z" fill="#552bb1"/>
  </g>
</svg>
