<svg xmlns="http://www.w3.org/2000/svg" width="121.858" height="110.788" viewBox="0 0 121.858 110.788">
  <g id="pool" transform="translate(-3.989 -2)">
    <path id="Trazado_2655" data-name="Trazado 2655" d="M9.769,79.546a2.769,2.769,0,0,0,2.769-2.769V62.929H51.312V76.776a2.769,2.769,0,0,0,5.539,0V15.847a8.309,8.309,0,1,1,16.617,0,2.769,2.769,0,1,0,5.539,0,13.847,13.847,0,1,0-27.695,0V35.234H12.539V15.847a8.308,8.308,0,1,1,16.617,0,2.77,2.77,0,0,0,5.539,0A13.847,13.847,0,1,0,7,15.848V76.776A2.769,2.769,0,0,0,9.769,79.546ZM51.312,40.773V57.39H12.539V40.773Z" transform="translate(30.223 0)" fill="#fd4d44"/>
    <path id="Trazado_2656" data-name="Trazado 2656" d="M120.088,16.747a31.683,31.683,0,0,0-15.731,3.767,26.587,26.587,0,0,1-13.349,3.213A26.421,26.421,0,0,1,77.66,20.513a32.126,32.126,0,0,0-15.731-3.767A32.015,32.015,0,0,0,46.2,20.513a26.421,26.421,0,0,1-13.4,3.213A26.366,26.366,0,0,1,19.5,20.513,31.683,31.683,0,0,0,3.77,16.747a2.769,2.769,0,1,0,0,5.539A26.587,26.587,0,0,1,17.118,25.5a31.628,31.628,0,0,0,15.675,3.767A32.126,32.126,0,0,0,48.58,25.5a26.366,26.366,0,0,1,13.294-3.213A26.421,26.421,0,0,1,75.223,25.5a32.126,32.126,0,0,0,15.786,3.767A31.849,31.849,0,0,0,106.74,25.5a26.421,26.421,0,0,1,13.349-3.213,2.769,2.769,0,1,0,0-5.539Z" transform="translate(2.989 66.898)" fill="#fd4d44"/>
    <path id="Trazado_2657" data-name="Trazado 2657" d="M69.59,26.725H68.316a26.421,26.421,0,0,1-13.349-3.213,32.126,32.126,0,0,0-15.731-3.767,32.015,32.015,0,0,0-15.731,3.767,26.421,26.421,0,0,1-13.4,3.213H8.882A2.714,2.714,0,0,0,6,29.383a2.769,2.769,0,0,0,2.659,2.88H10.1A32.126,32.126,0,0,0,25.887,28.5,26.366,26.366,0,0,1,39.18,25.284,26.421,26.421,0,0,1,52.529,28.5a32.126,32.126,0,0,0,15.786,3.767h1.5a2.769,2.769,0,0,0,0-5.539Z" transform="translate(25.682 80.516)" fill="#fd4d44"/>
  </g>
</svg>
