<svg xmlns="http://www.w3.org/2000/svg" width="58.255" height="78.854" viewBox="0 0 58.255 78.854">
  <g id="baño" transform="translate(-16.808 -3.5)">
    <g id="Grupo_1874" data-name="Grupo 1874" transform="translate(16.808 3.5)">
      <path id="Trazado_2694" data-name="Trazado 2694" d="M71.4,39.43H68.955a171.868,171.868,0,0,0,3.807-27.462h.473A1.271,1.271,0,0,0,74.507,10.7V4.772A1.271,1.271,0,0,0,73.236,3.5h-54.6a1.271,1.271,0,0,0-1.272,1.272V10.7a1.271,1.271,0,0,0,1.272,1.272h.473A171.869,171.869,0,0,0,22.916,39.43H20.469a3.662,3.662,0,0,0,0,7.323h.424a21.932,21.932,0,0,0,9.424,16.483A60.916,60.916,0,0,0,26.34,80.989a1.272,1.272,0,0,0,1.268,1.365H64.262a1.272,1.272,0,0,0,1.268-1.365,60.911,60.911,0,0,0-3.977-17.752,21.935,21.935,0,0,0,9.424-16.484H71.4a3.662,3.662,0,0,0,0-7.323ZM19.908,6.044H71.964V9.424H19.909V6.044Zm1.749,5.924H70.215A167.322,167.322,0,0,1,66.34,39.43H25.532A167.349,167.349,0,0,1,21.657,11.968ZM59.386,64.65a58.177,58.177,0,0,1,3.493,15.161H28.992A58.185,58.185,0,0,1,32.486,64.65c.111.064.227.118.339.18.19.105.383.205.577.306q.623.326,1.263.616c.184.084.368.169.555.248q.4.17.8.326c.194.075.391.146.587.217q.624.226,1.26.421c.247.075.493.152.742.22s.493.129.741.19c.27.066.541.127.814.186.215.046.431.094.649.135q.7.131,1.413.227c.162.021.326.037.489.056q.567.066,1.144.109c.163.012.325.025.488.034.527.03,1.056.05,1.591.05s1.063-.02,1.59-.05c.164-.009.328-.022.493-.034q.574-.042,1.138-.109c.164-.019.331-.035.494-.057q.711-.1,1.408-.226c.22-.041.439-.091.658-.137.268-.057.535-.117.8-.182s.5-.124.753-.193.471-.138.7-.209q.66-.2,1.307-.436c.19-.069.38-.137.567-.21q.407-.158.808-.329c.185-.079.366-.163.548-.246q.638-.291,1.261-.616c.2-.1.393-.2.585-.311C59.161,64.767,59.277,64.712,59.386,64.65Zm-.237-2.84q-.567.366-1.154.7c-.145.082-.292.161-.439.24-.352.189-.706.371-1.068.541-.187.089-.378.174-.569.258-.3.135-.61.262-.92.384-.181.07-.361.143-.545.211-.4.145-.8.277-1.2.4-.192.059-.386.114-.581.168-.406.113-.814.22-1.227.312-.158.036-.317.065-.476.1q-.579.117-1.166.208c-.14.021-.279.045-.42.064q-.734.1-1.48.157c-.121.009-.244.016-.366.024-.53.033-1.062.056-1.6.056s-1.069-.023-1.6-.056c-.122-.008-.245-.014-.366-.024q-.744-.057-1.48-.157c-.141-.02-.279-.042-.419-.064q-.588-.09-1.168-.209c-.159-.032-.321-.063-.479-.1-.411-.092-.818-.2-1.223-.31-.194-.054-.388-.109-.58-.168-.4-.124-.806-.256-1.2-.4-.187-.068-.37-.142-.554-.214q-.457-.179-.9-.377c-.2-.09-.407-.181-.607-.276q-.519-.247-1.024-.519c-.156-.084-.312-.168-.465-.254q-.571-.324-1.123-.679a19.6,19.6,0,0,1-9.3-15.068H68.431A19.587,19.587,0,0,1,59.149,61.809ZM71.4,44.209H20.47a1.118,1.118,0,0,1,0-2.236H71.4a1.118,1.118,0,0,1,0,2.236Z" transform="translate(-16.808 -3.5)" fill="#552bb1"/>
      <path id="Trazado_2695" data-name="Trazado 2695" d="M42.7,18.846H35.362a3.755,3.755,0,1,0,0,2.544H42.7a1.272,1.272,0,0,0,0-2.544Z" transform="translate(-18.524 -5.456)" fill="#552bb1"/>
    </g>
  </g>
</svg>
