<svg xmlns="http://www.w3.org/2000/svg" width="78.768" height="78.768" viewBox="0 0 78.768 78.768">
  <g id="Grupo_1875" data-name="Grupo 1875" transform="translate(-5.996 -958.484)">
    <path id="Trazado_2685" data-name="Trazado 2685" d="M45.184,958.493a1.852,1.852,0,0,0-1.594,1.815,56.811,56.811,0,0,0-20.305,3.769c-7.966,3.221-15.325,9.14-17.257,19.1a1.87,1.87,0,0,0,1.762,2.15c11.96.016,23.864,0,35.8,0V1002.3a1.79,1.79,0,1,0,3.58,0V985.324c11.956.015,23.837,0,35.8,0a1.87,1.87,0,0,0,1.762-2.15c-1.931-9.957-9.291-15.876-17.257-19.1a56.81,56.81,0,0,0-20.305-3.769A1.867,1.867,0,0,0,45.184,958.493Zm-13.313,6.729A32.52,32.52,0,0,0,16.935,981.75H10.111c2.207-7.261,7.889-11.66,14.544-14.351A45.324,45.324,0,0,1,31.871,965.222Zm27.018,0A45.324,45.324,0,0,1,66.1,967.4c6.655,2.691,12.337,7.089,14.544,14.351H73.824A32.52,32.52,0,0,0,58.889,965.222Zm-15.3.251V981.75H32.43c1.8-7.112,4.793-11.676,11.16-16.277Zm3.58,0c6.366,4.6,9.357,9.165,11.16,16.277H47.17Zm-10.321,1.284a30.951,30.951,0,0,0-8.111,14.993H20.851c3.565-7.781,9.826-12.284,16-14.993Zm17.061,0c6.173,2.709,12.433,7.212,16,14.993H62.021a30.951,30.951,0,0,0-8.111-14.993ZM7.538,1004.086A1.85,1.85,0,0,0,6,1005.873v13.4q0,.042,0,.083a5.764,5.764,0,0,0,1.51,3.713,5.428,5.428,0,0,0,3.8,1.563h1.175l-4.5,9.018A1.861,1.861,0,0,0,8.7,1036.2a1.867,1.867,0,0,0,2.469-.952l4-7.985,5.454,8.181a1.789,1.789,0,1,0,2.965-1.982l-5.9-8.823h8a1.863,1.863,0,0,0,1.79-1.9,20.021,20.021,0,0,0-4.419-12.229c-3.061-3.563-8.014-6.03-15.187-6.421a1.752,1.752,0,0,0-.336,0Zm75.348,0c-7.173.391-12.126,2.858-15.187,6.421a20.021,20.021,0,0,0-4.419,12.229,1.862,1.862,0,0,0,1.79,1.9h8.055l-6.013,9.772a1.8,1.8,0,0,0,3.077,1.87l5.4-8.767,3.972,8.572a1.789,1.789,0,1,0,3.244-1.48l-4.615-9.967h1.259a5.43,5.43,0,0,0,3.8-1.563,5.765,5.765,0,0,0,1.51-3.713q0-.042,0-.083v-13.4a1.862,1.862,0,0,0-1.874-1.787ZM30,1007.66a1.789,1.789,0,1,0,.168,3.574H43.59v22.336H37.157a1.789,1.789,0,1,0,.168,3.574h16.11a1.787,1.787,0,1,0,0-3.574H47.17v-22.336H60.595a1.787,1.787,0,1,0,0-3.574H30Zm-20.417.223c5.273.633,8.645,2.471,10.768,4.942a15.474,15.474,0,0,1,3.216,8.236H11.426a1.735,1.735,0,0,1-1.343-.475,2.142,2.142,0,0,1-.5-1.424Zm71.6,0v11.279a2.142,2.142,0,0,1-.5,1.424,1.737,1.737,0,0,1-1.343.475H67.2a15.474,15.474,0,0,1,3.216-8.236c2.123-2.471,5.495-4.308,10.768-4.942Z" fill="#fd4d44"/>
  </g>
</svg>
